<?xml version="1.0" encoding="UTF-8"?>
<svg xmlns="http://www.w3.org/2000/svg" xmlns:xlink="http://www.w3.org/1999/xlink" width="146px" height="50px" viewBox="0 0 146 50" version="1.1">
<g id="surface1">
<path style=" stroke:none;fill-rule:nonzero;fill:rgb(100%,100%,100%);fill-opacity:1;" d="M 130.316406 6.753906 C 130.480469 6.753906 130.648438 6.753906 130.8125 6.753906 C 131.261719 6.753906 131.710938 6.753906 132.160156 6.753906 C 132.535156 6.753906 132.910156 6.753906 133.285156 6.75 C 134.222656 6.75 135.15625 6.75 136.089844 6.75 C 136.902344 6.75 137.714844 6.75 138.527344 6.75 C 139.359375 6.75 140.195312 6.746094 141.03125 6.746094 C 141.5 6.746094 141.964844 6.746094 142.433594 6.746094 C 142.875 6.746094 143.3125 6.746094 143.753906 6.746094 C 143.914062 6.746094 144.078125 6.746094 144.238281 6.746094 C 144.457031 6.746094 144.675781 6.746094 144.898438 6.746094 C 144.960938 6.746094 145.027344 6.746094 145.09375 6.746094 C 145.527344 6.75 145.527344 6.75 145.6875 6.871094 C 145.851562 7.089844 145.808594 7.363281 145.808594 7.625 C 145.808594 7.691406 145.808594 7.753906 145.808594 7.820312 C 145.808594 8.035156 145.808594 8.25 145.804688 8.460938 C 145.804688 8.609375 145.804688 8.757812 145.804688 8.90625 C 145.804688 9.214844 145.804688 9.527344 145.804688 9.835938 C 145.800781 10.234375 145.800781 10.632812 145.804688 11.03125 C 145.804688 11.335938 145.804688 11.640625 145.800781 11.945312 C 145.800781 12.09375 145.800781 12.238281 145.800781 12.386719 C 145.800781 12.589844 145.800781 12.796875 145.800781 13 C 145.800781 13.09375 145.800781 13.09375 145.800781 13.1875 C 145.796875 13.605469 145.796875 13.605469 145.632812 13.769531 C 145.335938 13.867188 145.039062 13.851562 144.734375 13.851562 C 144.671875 13.851562 144.609375 13.851562 144.546875 13.851562 C 144.339844 13.851562 144.132812 13.851562 143.925781 13.851562 C 143.777344 13.851562 143.628906 13.847656 143.480469 13.847656 C 143.160156 13.847656 142.839844 13.847656 142.523438 13.847656 C 142.015625 13.847656 141.511719 13.84375 141.003906 13.84375 C 139.566406 13.84375 138.125 13.839844 136.6875 13.835938 C 135.894531 13.835938 135.097656 13.832031 134.304688 13.832031 C 133.800781 13.832031 133.300781 13.832031 132.796875 13.828125 C 132.484375 13.828125 132.171875 13.828125 131.855469 13.828125 C 131.710938 13.828125 131.566406 13.828125 131.421875 13.828125 C 129.769531 13.78125 129.769531 13.78125 128.316406 14.46875 C 127.859375 14.957031 127.582031 15.617188 127.550781 16.28125 C 127.605469 17.074219 127.933594 17.683594 128.492188 18.230469 C 129.238281 18.847656 130.347656 18.734375 131.253906 18.734375 C 131.503906 18.734375 131.753906 18.734375 132.003906 18.734375 C 132.539062 18.738281 133.070312 18.738281 133.601562 18.742188 C 134.21875 18.742188 134.835938 18.742188 135.453125 18.746094 C 135.695312 18.746094 135.941406 18.746094 136.1875 18.746094 C 137.277344 18.75 138.339844 18.824219 139.382812 19.1875 C 139.433594 19.207031 139.488281 19.222656 139.542969 19.242188 C 140.855469 19.714844 141.980469 20.472656 142.988281 21.429688 C 143.042969 21.476562 143.097656 21.527344 143.152344 21.578125 C 144.761719 23.105469 145.722656 25.3125 145.808594 27.515625 C 145.835938 28.628906 145.796875 29.707031 145.484375 30.78125 C 145.472656 30.832031 145.457031 30.886719 145.441406 30.941406 C 145.066406 32.210938 144.433594 33.382812 143.578125 34.390625 C 143.515625 34.460938 143.457031 34.535156 143.394531 34.609375 C 141.769531 36.5 139.421875 37.503906 136.972656 37.6875 C 136.351562 37.722656 135.726562 37.714844 135.105469 37.714844 C 134.949219 37.714844 134.792969 37.714844 134.636719 37.714844 C 134.214844 37.714844 133.789062 37.71875 133.367188 37.71875 C 133.105469 37.71875 132.839844 37.71875 132.574219 37.71875 C 131.746094 37.71875 130.921875 37.71875 130.09375 37.71875 C 129.136719 37.71875 128.183594 37.722656 127.230469 37.722656 C 126.492188 37.726562 125.75 37.726562 125.011719 37.726562 C 124.570312 37.726562 124.128906 37.726562 123.691406 37.726562 C 123.277344 37.730469 122.863281 37.730469 122.449219 37.730469 C 122.296875 37.730469 122.144531 37.730469 121.992188 37.730469 C 121.785156 37.730469 121.578125 37.730469 121.371094 37.730469 C 121.28125 37.730469 121.28125 37.730469 121.1875 37.730469 C 120.945312 37.730469 120.769531 37.71875 120.554688 37.605469 C 120.308594 37.335938 120.359375 37 120.355469 36.660156 C 120.355469 36.566406 120.355469 36.566406 120.355469 36.476562 C 120.355469 36.273438 120.355469 36.070312 120.355469 35.867188 C 120.355469 35.726562 120.351562 35.585938 120.351562 35.445312 C 120.351562 35.148438 120.351562 34.855469 120.351562 34.558594 C 120.351562 34.179688 120.347656 33.800781 120.347656 33.421875 C 120.347656 33.132812 120.34375 32.84375 120.34375 32.550781 C 120.34375 32.410156 120.34375 32.273438 120.34375 32.132812 C 120.34375 31.9375 120.34375 31.742188 120.34375 31.546875 C 120.34375 31.488281 120.339844 31.433594 120.339844 31.375 C 120.34375 31.042969 120.371094 30.816406 120.589844 30.558594 C 120.867188 30.453125 121.160156 30.476562 121.453125 30.476562 C 121.507812 30.476562 121.566406 30.476562 121.625 30.476562 C 121.820312 30.476562 122.011719 30.476562 122.207031 30.480469 C 122.34375 30.480469 122.484375 30.480469 122.621094 30.480469 C 122.917969 30.480469 123.21875 30.480469 123.515625 30.480469 C 123.992188 30.480469 124.464844 30.480469 124.9375 30.480469 C 126.03125 30.484375 127.125 30.484375 128.214844 30.488281 C 129.214844 30.488281 130.214844 30.488281 131.210938 30.488281 C 131.679688 30.492188 132.148438 30.492188 132.621094 30.492188 C 132.914062 30.492188 133.207031 30.492188 133.503906 30.492188 C 133.636719 30.492188 133.773438 30.492188 133.90625 30.492188 C 134.628906 30.496094 135.351562 30.488281 136.074219 30.460938 C 136.140625 30.457031 136.207031 30.457031 136.277344 30.453125 C 136.980469 30.421875 137.53125 30.222656 138.070312 29.75 C 138.179688 29.609375 138.179688 29.609375 138.265625 29.464844 C 138.292969 29.417969 138.324219 29.371094 138.355469 29.320312 C 138.644531 28.746094 138.679688 28.101562 138.53125 27.476562 C 138.300781 26.84375 137.941406 26.445312 137.347656 26.140625 C 136.746094 25.863281 136.152344 25.835938 135.507812 25.835938 C 135.433594 25.835938 135.363281 25.835938 135.289062 25.835938 C 135.136719 25.832031 134.984375 25.832031 134.828125 25.832031 C 134.585938 25.832031 134.339844 25.828125 134.09375 25.828125 C 133.398438 25.824219 132.703125 25.820312 132.007812 25.816406 C 131.582031 25.816406 131.15625 25.8125 130.730469 25.808594 C 130.566406 25.808594 130.40625 25.808594 130.246094 25.808594 C 127.476562 25.804688 125.035156 24.996094 123.046875 23.011719 C 121.226562 21.144531 120.324219 18.503906 120.34375 15.914062 C 120.402344 13.527344 121.375 11.363281 123.011719 9.648438 C 123.101562 9.554688 123.101562 9.554688 123.191406 9.457031 C 123.253906 9.398438 123.316406 9.339844 123.378906 9.277344 C 123.429688 9.230469 123.480469 9.183594 123.53125 9.132812 C 125.417969 7.347656 127.785156 6.75 130.316406 6.753906 Z M 130.316406 6.753906 "/>
<path style=" stroke:none;fill-rule:nonzero;fill:rgb(100%,100%,100%);fill-opacity:1;" d="M 44.632812 6.683594 C 44.6875 6.683594 44.742188 6.683594 44.800781 6.683594 C 44.980469 6.683594 45.164062 6.6875 45.347656 6.6875 C 45.480469 6.6875 45.609375 6.6875 45.742188 6.6875 C 46.101562 6.691406 46.457031 6.691406 46.8125 6.695312 C 47.113281 6.695312 47.414062 6.695312 47.710938 6.699219 C 48.417969 6.699219 49.125 6.703125 49.832031 6.710938 C 50.558594 6.714844 51.285156 6.71875 52.007812 6.71875 C 52.632812 6.722656 53.261719 6.722656 53.886719 6.726562 C 54.257812 6.730469 54.628906 6.730469 55.003906 6.734375 C 55.355469 6.734375 55.707031 6.734375 56.058594 6.738281 C 56.183594 6.738281 56.3125 6.742188 56.441406 6.742188 C 57.566406 6.742188 58.691406 6.847656 59.773438 7.183594 C 59.832031 7.203125 59.890625 7.222656 59.953125 7.238281 C 61.015625 7.582031 62.046875 8.089844 62.9375 8.761719 C 63 8.808594 63.0625 8.855469 63.125 8.902344 C 65.488281 10.742188 67.046875 13.25 67.53125 16.21875 C 67.699219 17.558594 67.664062 19.085938 67.34375 20.398438 C 67.324219 20.488281 67.324219 20.488281 67.300781 20.582031 C 66.882812 22.292969 66.152344 23.847656 64.996094 25.183594 C 64.945312 25.246094 64.894531 25.304688 64.839844 25.367188 C 63.28125 27.15625 61.179688 28.296875 58.875 28.804688 C 58.824219 28.816406 58.773438 28.828125 58.722656 28.839844 C 57.699219 29.050781 56.667969 29.109375 55.625 29.097656 C 55.433594 29.097656 55.242188 29.09375 55.050781 29.09375 C 54.648438 29.09375 54.246094 29.089844 53.839844 29.085938 C 53.371094 29.082031 52.898438 29.082031 52.425781 29.078125 C 52.238281 29.078125 52.050781 29.074219 51.863281 29.074219 C 51.75 29.074219 51.632812 29.074219 51.519531 29.074219 C 51.441406 29.070312 51.441406 29.070312 51.363281 29.070312 C 51.097656 29.070312 50.894531 29.078125 50.675781 29.234375 C 50.585938 29.40625 50.589844 29.511719 50.589844 29.707031 C 50.589844 29.773438 50.589844 29.84375 50.589844 29.914062 C 50.589844 29.988281 50.589844 30.0625 50.585938 30.140625 C 50.585938 30.257812 50.585938 30.257812 50.585938 30.378906 C 50.585938 30.550781 50.585938 30.722656 50.582031 30.894531 C 50.582031 31.164062 50.582031 31.433594 50.578125 31.707031 C 50.574219 32.476562 50.570312 33.246094 50.566406 34.019531 C 50.5625 34.488281 50.558594 34.960938 50.558594 35.429688 C 50.554688 35.609375 50.554688 35.789062 50.554688 35.96875 C 50.554688 36.222656 50.550781 36.472656 50.550781 36.722656 C 50.550781 36.796875 50.550781 36.875 50.550781 36.949219 C 50.546875 37.019531 50.546875 37.085938 50.546875 37.15625 C 50.546875 37.214844 50.546875 37.277344 50.546875 37.335938 C 50.527344 37.480469 50.527344 37.480469 50.378906 37.628906 C 50.09375 37.738281 49.785156 37.714844 49.484375 37.714844 C 49.425781 37.714844 49.367188 37.714844 49.304688 37.714844 C 49.105469 37.714844 48.90625 37.71875 48.707031 37.71875 C 48.566406 37.71875 48.429688 37.71875 48.289062 37.71875 C 48 37.71875 47.707031 37.71875 47.417969 37.71875 C 47.046875 37.71875 46.671875 37.722656 46.300781 37.722656 C 46.015625 37.726562 45.726562 37.726562 45.441406 37.726562 C 45.304688 37.726562 45.167969 37.726562 45.03125 37.726562 C 44.839844 37.730469 44.644531 37.730469 44.453125 37.730469 C 44.398438 37.730469 44.339844 37.730469 44.28125 37.730469 C 43.953125 37.726562 43.738281 37.6875 43.476562 37.480469 C 43.371094 37.269531 43.394531 37.082031 43.394531 36.84375 C 43.394531 36.792969 43.394531 36.742188 43.394531 36.691406 C 43.394531 36.519531 43.394531 36.34375 43.394531 36.171875 C 43.394531 36.046875 43.394531 35.921875 43.394531 35.800781 C 43.394531 35.457031 43.394531 35.113281 43.394531 34.769531 C 43.394531 34.398438 43.390625 34.03125 43.390625 33.660156 C 43.390625 32.933594 43.390625 32.210938 43.390625 31.484375 C 43.390625 30.894531 43.390625 30.308594 43.390625 29.71875 C 43.390625 28.050781 43.390625 26.382812 43.390625 24.714844 C 43.390625 24.621094 43.390625 24.53125 43.390625 24.441406 C 43.390625 24.351562 43.390625 24.261719 43.390625 24.167969 C 43.390625 22.707031 43.390625 21.246094 43.386719 19.785156 C 43.386719 18.285156 43.386719 16.785156 43.386719 15.285156 C 43.386719 14.445312 43.386719 13.601562 43.386719 12.761719 C 43.386719 12.042969 43.386719 11.328125 43.386719 10.609375 C 43.386719 10.242188 43.386719 9.878906 43.386719 9.511719 C 43.382812 9.175781 43.382812 8.84375 43.386719 8.507812 C 43.386719 8.386719 43.386719 8.265625 43.382812 8.144531 C 43.382812 7.980469 43.382812 7.816406 43.386719 7.648438 C 43.386719 7.558594 43.386719 7.46875 43.386719 7.371094 C 43.402344 7.152344 43.421875 7.027344 43.550781 6.847656 C 43.910156 6.707031 44.25 6.679688 44.632812 6.683594 Z M 50.625 14.011719 C 50.503906 14.171875 50.5 14.253906 50.5 14.453125 C 50.5 14.519531 50.496094 14.582031 50.496094 14.648438 C 50.496094 14.71875 50.5 14.789062 50.5 14.863281 C 50.5 14.9375 50.496094 15.011719 50.496094 15.089844 C 50.496094 15.335938 50.496094 15.582031 50.496094 15.828125 C 50.496094 16 50.496094 16.167969 50.496094 16.339844 C 50.496094 16.699219 50.496094 17.058594 50.5 17.414062 C 50.5 17.875 50.5 18.335938 50.496094 18.792969 C 50.496094 19.148438 50.496094 19.5 50.496094 19.851562 C 50.496094 20.023438 50.496094 20.191406 50.496094 20.363281 C 50.496094 20.597656 50.496094 20.835938 50.5 21.070312 C 50.5 21.144531 50.496094 21.214844 50.496094 21.285156 C 50.5 21.382812 50.5 21.382812 50.5 21.480469 C 50.5 21.535156 50.5 21.59375 50.5 21.652344 C 50.535156 21.839844 50.597656 21.902344 50.746094 22.019531 C 50.933594 22.039062 51.097656 22.046875 51.28125 22.046875 C 51.335938 22.046875 51.390625 22.046875 51.449219 22.046875 C 51.628906 22.046875 51.808594 22.046875 51.988281 22.042969 C 52.113281 22.042969 52.238281 22.042969 52.367188 22.042969 C 52.628906 22.042969 52.894531 22.042969 53.160156 22.042969 C 53.496094 22.039062 53.832031 22.039062 54.167969 22.042969 C 54.429688 22.042969 54.6875 22.039062 54.949219 22.039062 C 55.074219 22.039062 55.195312 22.039062 55.320312 22.039062 C 56.824219 22.039062 58.191406 21.867188 59.347656 20.8125 C 60.171875 19.953125 60.472656 18.882812 60.46875 17.722656 C 60.445312 16.679688 60.0625 15.832031 59.355469 15.074219 C 58.523438 14.285156 57.410156 13.894531 56.277344 13.898438 C 56.1875 13.898438 56.1875 13.898438 56.097656 13.894531 C 55.902344 13.894531 55.707031 13.894531 55.511719 13.894531 C 55.375 13.894531 55.238281 13.894531 55.101562 13.894531 C 54.8125 13.894531 54.527344 13.894531 54.242188 13.894531 C 53.875 13.894531 53.511719 13.894531 53.144531 13.890625 C 52.863281 13.890625 52.582031 13.890625 52.296875 13.890625 C 52.164062 13.890625 52.027344 13.890625 51.894531 13.890625 C 51.703125 13.890625 51.515625 13.890625 51.328125 13.890625 C 51.273438 13.890625 51.214844 13.890625 51.160156 13.886719 C 50.871094 13.886719 50.871094 13.886719 50.625 14.011719 Z M 50.625 14.011719 "/>
<path style=" stroke:none;fill-rule:nonzero;fill:rgb(100%,100%,100%);fill-opacity:1;" d="M 92.683594 6.691406 C 92.769531 6.691406 92.769531 6.691406 92.859375 6.691406 C 93.050781 6.6875 93.242188 6.6875 93.433594 6.6875 C 93.566406 6.6875 93.699219 6.6875 93.832031 6.6875 C 94.113281 6.6875 94.390625 6.6875 94.671875 6.6875 C 95.027344 6.6875 95.386719 6.6875 95.742188 6.683594 C 96.019531 6.683594 96.296875 6.683594 96.570312 6.683594 C 96.703125 6.683594 96.835938 6.683594 96.964844 6.683594 C 97.152344 6.683594 97.335938 6.683594 97.519531 6.683594 C 97.601562 6.683594 97.601562 6.683594 97.683594 6.683594 C 98 6.683594 98.265625 6.722656 98.558594 6.847656 C 98.640625 7.015625 98.640625 7.109375 98.640625 7.296875 C 98.640625 7.359375 98.640625 7.421875 98.640625 7.488281 C 98.640625 7.558594 98.640625 7.628906 98.640625 7.703125 C 98.640625 7.777344 98.640625 7.851562 98.640625 7.925781 C 98.640625 8.175781 98.640625 8.425781 98.640625 8.675781 C 98.644531 8.855469 98.644531 9.035156 98.644531 9.214844 C 98.644531 9.597656 98.644531 9.984375 98.644531 10.371094 C 98.644531 10.980469 98.648438 11.59375 98.648438 12.203125 C 98.648438 12.414062 98.652344 12.621094 98.652344 12.832031 C 98.652344 12.882812 98.652344 12.9375 98.652344 12.988281 C 98.652344 13.585938 98.652344 14.179688 98.65625 14.777344 C 98.65625 14.832031 98.65625 14.882812 98.65625 14.941406 C 98.65625 15.820312 98.660156 16.699219 98.660156 17.582031 C 98.660156 18.484375 98.664062 19.390625 98.667969 20.292969 C 98.667969 20.851562 98.667969 21.40625 98.667969 21.964844 C 98.667969 22.394531 98.671875 22.820312 98.671875 23.25 C 98.671875 23.425781 98.671875 23.597656 98.671875 23.773438 C 98.671875 25.882812 99.046875 27.671875 100.546875 29.246094 C 101.640625 30.292969 103.21875 30.835938 104.722656 30.800781 C 106.277344 30.671875 107.648438 30.132812 108.765625 29.011719 C 108.84375 28.9375 108.84375 28.9375 108.921875 28.859375 C 110.320312 27.386719 110.476562 25.554688 110.476562 23.625 C 110.476562 23.445312 110.476562 23.265625 110.476562 23.085938 C 110.476562 22.699219 110.476562 22.3125 110.476562 21.925781 C 110.476562 21.367188 110.476562 20.804688 110.480469 20.246094 C 110.480469 19.335938 110.484375 18.429688 110.484375 17.519531 C 110.484375 17.464844 110.484375 17.414062 110.484375 17.355469 C 110.484375 16.75 110.488281 16.144531 110.488281 15.539062 C 110.488281 15.316406 110.488281 15.097656 110.488281 14.875 C 110.488281 14.824219 110.488281 14.769531 110.488281 14.710938 C 110.488281 13.804688 110.492188 12.898438 110.492188 11.992188 C 110.496094 11.433594 110.496094 10.878906 110.496094 10.320312 C 110.496094 9.890625 110.496094 9.464844 110.5 9.039062 C 110.5 8.863281 110.5 8.6875 110.5 8.511719 C 110.496094 8.273438 110.5 8.035156 110.5 7.792969 C 110.5 7.726562 110.5 7.65625 110.5 7.582031 C 110.503906 7.117188 110.503906 7.117188 110.625 6.882812 C 110.90625 6.640625 111.246094 6.691406 111.589844 6.695312 C 111.6875 6.695312 111.6875 6.695312 111.785156 6.695312 C 111.996094 6.699219 112.203125 6.699219 112.414062 6.703125 C 112.5625 6.703125 112.707031 6.703125 112.851562 6.707031 C 113.160156 6.707031 113.464844 6.710938 113.769531 6.714844 C 114.164062 6.71875 114.554688 6.722656 114.949219 6.722656 C 115.25 6.726562 115.550781 6.730469 115.851562 6.730469 C 115.996094 6.734375 116.140625 6.734375 116.285156 6.734375 C 116.488281 6.738281 116.691406 6.738281 116.890625 6.742188 C 116.953125 6.742188 117.011719 6.742188 117.074219 6.742188 C 117.242188 6.746094 117.242188 6.746094 117.503906 6.773438 C 117.65625 7.003906 117.671875 7.054688 117.671875 7.316406 C 117.671875 7.378906 117.671875 7.445312 117.671875 7.511719 C 117.671875 7.585938 117.671875 7.65625 117.671875 7.730469 C 117.671875 7.808594 117.671875 7.882812 117.671875 7.964844 C 117.671875 8.222656 117.671875 8.480469 117.671875 8.738281 C 117.671875 8.921875 117.671875 9.105469 117.671875 9.289062 C 117.671875 9.738281 117.671875 10.1875 117.671875 10.640625 C 117.671875 11.003906 117.671875 11.371094 117.671875 11.738281 C 117.671875 11.789062 117.671875 11.839844 117.671875 11.894531 C 117.671875 12 117.671875 12.105469 117.671875 12.214844 C 117.671875 13.207031 117.671875 14.199219 117.671875 15.195312 C 117.671875 16.046875 117.671875 16.894531 117.671875 17.746094 C 117.671875 18.734375 117.671875 19.722656 117.671875 20.714844 C 117.671875 20.820312 117.671875 20.925781 117.671875 21.03125 C 117.671875 21.082031 117.671875 21.136719 117.671875 21.1875 C 117.671875 21.554688 117.671875 21.917969 117.671875 22.28125 C 117.671875 22.773438 117.671875 23.269531 117.671875 23.761719 C 117.671875 23.941406 117.671875 24.121094 117.671875 24.300781 C 117.671875 25.554688 117.648438 26.792969 117.34375 28.015625 C 117.328125 28.078125 117.3125 28.144531 117.296875 28.210938 C 116.871094 29.863281 116.144531 31.429688 115.082031 32.769531 C 115.050781 32.808594 115.019531 32.847656 114.988281 32.886719 C 112.742188 35.722656 109.535156 37.535156 105.941406 37.953125 C 102.46875 38.261719 99.015625 37.269531 96.289062 35.082031 C 96.164062 34.976562 96.039062 34.867188 95.914062 34.757812 C 95.839844 34.695312 95.765625 34.628906 95.691406 34.566406 C 95.199219 34.128906 94.773438 33.664062 94.371094 33.136719 C 94.316406 33.066406 94.261719 33 94.207031 32.929688 C 93 31.367188 92.195312 29.566406 91.777344 27.636719 C 91.761719 27.5625 91.761719 27.5625 91.746094 27.488281 C 91.5 26.253906 91.484375 25.019531 91.488281 23.769531 C 91.488281 23.585938 91.484375 23.402344 91.484375 23.21875 C 91.484375 22.777344 91.484375 22.332031 91.484375 21.890625 C 91.484375 21.53125 91.484375 21.171875 91.484375 20.808594 C 91.484375 20.757812 91.484375 20.707031 91.484375 20.65625 C 91.484375 20.550781 91.484375 20.445312 91.484375 20.339844 C 91.484375 19.363281 91.484375 18.386719 91.484375 17.410156 C 91.484375 16.519531 91.484375 15.625 91.480469 14.730469 C 91.480469 13.8125 91.480469 12.894531 91.480469 11.976562 C 91.480469 11.460938 91.480469 10.945312 91.480469 10.429688 C 91.476562 9.945312 91.476562 9.460938 91.480469 8.980469 C 91.480469 8.800781 91.480469 8.625 91.480469 8.445312 C 91.476562 8.203125 91.480469 7.960938 91.480469 7.71875 C 91.480469 7.648438 91.476562 7.578125 91.476562 7.503906 C 91.476562 7.441406 91.480469 7.375 91.480469 7.308594 C 91.480469 7.253906 91.480469 7.199219 91.480469 7.140625 C 91.515625 6.957031 91.582031 6.890625 91.726562 6.773438 C 92.039062 6.679688 92.359375 6.691406 92.683594 6.691406 Z M 92.683594 6.691406 "/>
<path style=" stroke:none;fill-rule:nonzero;fill:rgb(3.921569%,93.333334%,33.725491%);fill-opacity:1;" d="M 18.929688 -0.0273438 C 19.007812 -0.0273438 19.085938 -0.0273438 19.164062 -0.0273438 C 20.28125 -0.0195312 21.371094 0.0078125 22.472656 0.222656 C 22.539062 0.230469 22.605469 0.242188 22.671875 0.253906 C 25.324219 0.726562 27.992188 1.804688 30.183594 3.386719 C 30.226562 3.417969 30.273438 3.449219 30.316406 3.484375 C 31.765625 4.53125 33.128906 5.71875 34.222656 7.144531 C 34.28125 7.214844 34.339844 7.289062 34.398438 7.363281 C 36.5 10.007812 37.804688 13.226562 38.261719 16.570312 C 38.269531 16.632812 38.28125 16.695312 38.289062 16.757812 C 38.933594 21.714844 37.574219 26.917969 34.539062 30.878906 C 33.566406 32.132812 32.472656 33.347656 31.210938 34.316406 C 31.164062 34.351562 31.113281 34.390625 31.0625 34.429688 C 28.367188 36.515625 24.160156 38.742188 20.636719 38.367188 C 20.074219 38.207031 19.625 37.886719 19.324219 37.378906 C 19.074219 36.839844 19.082031 36.238281 19.214844 35.660156 C 19.375 35.242188 19.660156 34.910156 20.050781 34.683594 C 20.574219 34.484375 21.117188 34.398438 21.664062 34.300781 C 23.148438 34.027344 24.574219 33.589844 25.925781 32.917969 C 25.976562 32.890625 26.027344 32.863281 26.082031 32.839844 C 29.605469 31.097656 32.316406 27.933594 33.609375 24.226562 C 34.164062 22.582031 34.476562 20.945312 34.464844 19.207031 C 34.464844 19.152344 34.464844 19.101562 34.464844 19.046875 C 34.460938 18.15625 34.40625 17.292969 34.222656 16.421875 C 34.207031 16.351562 34.195312 16.28125 34.179688 16.210938 C 33.746094 14.207031 32.984375 12.28125 31.800781 10.605469 C 31.765625 10.558594 31.734375 10.507812 31.699219 10.460938 C 31.222656 9.789062 30.710938 9.167969 30.140625 8.574219 C 30.042969 8.476562 29.949219 8.375 29.855469 8.273438 C 29.371094 7.769531 28.835938 7.339844 28.273438 6.921875 C 28.214844 6.878906 28.214844 6.878906 28.15625 6.832031 C 27.515625 6.363281 26.84375 5.964844 26.144531 5.597656 C 26.097656 5.570312 26.046875 5.546875 26 5.519531 C 23.222656 4.078125 19.976562 3.585938 16.890625 4.050781 C 16.835938 4.058594 16.777344 4.066406 16.722656 4.074219 C 13.960938 4.503906 11.421875 5.757812 9.328125 7.585938 C 9.285156 7.621094 9.246094 7.65625 9.207031 7.691406 C 6.34375 10.191406 4.785156 13.621094 4.039062 17.292969 C 3.902344 17.953125 3.773438 18.535156 3.226562 18.972656 C 2.683594 19.304688 2.082031 19.296875 1.46875 19.21875 C 0.976562 19.082031 0.667969 18.832031 0.378906 18.414062 C -0.351562 17.105469 0.375 15.117188 0.734375 13.785156 C 1.289062 11.863281 2.15625 9.964844 3.304688 8.320312 C 3.34375 8.265625 3.378906 8.210938 3.417969 8.15625 C 3.914062 7.453125 4.429688 6.785156 5.027344 6.160156 C 5.175781 6.003906 5.316406 5.847656 5.453125 5.679688 C 5.644531 5.453125 5.855469 5.261719 6.082031 5.070312 C 6.25 4.925781 6.410156 4.777344 6.574219 4.625 C 7.800781 3.519531 9.226562 2.605469 10.726562 1.910156 C 10.820312 1.863281 10.917969 1.816406 11.015625 1.769531 C 12.277344 1.160156 13.617188 0.707031 14.976562 0.378906 C 15.03125 0.363281 15.085938 0.351562 15.140625 0.335938 C 15.332031 0.292969 15.523438 0.257812 15.714844 0.222656 C 15.765625 0.210938 15.8125 0.203125 15.863281 0.191406 C 16.886719 0.00390625 17.890625 -0.0351562 18.929688 -0.0273438 Z M 18.929688 -0.0273438 "/>
<path style=" stroke:none;fill-rule:nonzero;fill:rgb(100%,100%,100%);fill-opacity:1;" d="M 71.191406 6.738281 C 71.253906 6.738281 71.316406 6.738281 71.378906 6.738281 C 71.582031 6.734375 71.789062 6.738281 71.992188 6.738281 C 72.132812 6.738281 72.277344 6.738281 72.417969 6.738281 C 72.714844 6.738281 73.015625 6.738281 73.3125 6.742188 C 73.695312 6.742188 74.074219 6.742188 74.457031 6.742188 C 74.75 6.742188 75.042969 6.742188 75.339844 6.742188 C 75.480469 6.742188 75.621094 6.742188 75.761719 6.742188 C 75.957031 6.742188 76.152344 6.742188 76.351562 6.746094 C 76.4375 6.746094 76.4375 6.746094 76.527344 6.742188 C 76.765625 6.746094 76.9375 6.757812 77.148438 6.875 C 77.398438 7.148438 77.34375 7.496094 77.339844 7.847656 C 77.339844 7.945312 77.339844 7.945312 77.339844 8.046875 C 77.339844 8.191406 77.339844 8.335938 77.339844 8.480469 C 77.335938 8.71875 77.335938 8.957031 77.335938 9.195312 C 77.335938 9.542969 77.335938 9.894531 77.335938 10.246094 C 77.332031 11.214844 77.332031 12.179688 77.332031 13.148438 C 77.332031 13.199219 77.332031 13.25 77.332031 13.304688 C 77.332031 15.859375 77.335938 18.417969 77.347656 20.972656 C 77.347656 21.632812 77.351562 22.289062 77.351562 22.949219 C 77.355469 23.515625 77.355469 24.082031 77.359375 24.648438 C 77.359375 24.941406 77.363281 25.234375 77.363281 25.527344 C 77.363281 25.796875 77.363281 26.066406 77.367188 26.335938 C 77.367188 26.480469 77.367188 26.621094 77.363281 26.765625 C 77.378906 27.796875 77.636719 28.738281 78.335938 29.515625 C 79.359375 30.46875 80.78125 30.5 82.09375 30.492188 C 82.230469 30.492188 82.230469 30.492188 82.367188 30.492188 C 82.5625 30.492188 82.753906 30.488281 82.949219 30.488281 C 83.253906 30.488281 83.558594 30.488281 83.867188 30.488281 C 84.734375 30.484375 85.601562 30.480469 86.472656 30.480469 C 86.953125 30.476562 87.4375 30.476562 87.917969 30.476562 C 88.222656 30.476562 88.523438 30.472656 88.828125 30.472656 C 89.0625 30.472656 89.296875 30.472656 89.527344 30.46875 C 89.613281 30.46875 89.695312 30.46875 89.78125 30.46875 C 89.859375 30.46875 89.9375 30.46875 90.015625 30.46875 C 90.082031 30.46875 90.148438 30.46875 90.21875 30.46875 C 90.433594 30.488281 90.582031 30.527344 90.773438 30.632812 C 90.960938 31.019531 90.941406 31.515625 90.933594 31.9375 C 90.933594 31.996094 90.933594 32.054688 90.933594 32.117188 C 90.933594 32.3125 90.929688 32.511719 90.929688 32.707031 C 90.925781 32.84375 90.925781 32.980469 90.925781 33.117188 C 90.921875 33.402344 90.917969 33.691406 90.914062 33.976562 C 90.910156 34.34375 90.910156 34.710938 90.90625 35.078125 C 90.90625 35.359375 90.902344 35.644531 90.898438 35.925781 C 90.898438 36.0625 90.894531 36.199219 90.894531 36.332031 C 90.894531 36.523438 90.890625 36.710938 90.886719 36.898438 C 90.886719 36.957031 90.890625 37.011719 90.890625 37.070312 C 90.878906 37.449219 90.878906 37.449219 90.71875 37.605469 C 90.527344 37.714844 90.421875 37.730469 90.203125 37.730469 C 90.136719 37.730469 90.066406 37.730469 89.992188 37.730469 C 89.917969 37.730469 89.839844 37.730469 89.761719 37.730469 C 89.640625 37.730469 89.640625 37.730469 89.519531 37.730469 C 89.25 37.730469 88.984375 37.726562 88.714844 37.726562 C 88.527344 37.726562 88.339844 37.726562 88.152344 37.726562 C 87.757812 37.726562 87.359375 37.726562 86.964844 37.722656 C 86.5625 37.722656 86.164062 37.71875 85.761719 37.71875 C 85.6875 37.71875 85.6875 37.71875 85.613281 37.71875 C 85.566406 37.71875 85.515625 37.71875 85.464844 37.71875 C 82.066406 37.71875 82.066406 37.71875 80.410156 37.671875 C 80.316406 37.671875 80.21875 37.667969 80.121094 37.664062 C 79.367188 37.640625 78.648438 37.539062 77.921875 37.335938 C 77.871094 37.320312 77.824219 37.308594 77.773438 37.292969 C 76.378906 36.90625 75.046875 36.140625 73.953125 35.199219 C 73.894531 35.148438 73.835938 35.097656 73.773438 35.042969 C 71.75 33.273438 70.496094 30.816406 70.28125 28.128906 C 70.273438 27.835938 70.273438 27.546875 70.273438 27.253906 C 70.273438 27.164062 70.269531 27.078125 70.269531 26.992188 C 70.269531 26.753906 70.269531 26.515625 70.269531 26.277344 C 70.269531 26.019531 70.269531 25.761719 70.269531 25.503906 C 70.265625 24.882812 70.265625 24.265625 70.265625 23.644531 C 70.265625 23.351562 70.265625 23.058594 70.265625 22.765625 C 70.261719 21.796875 70.261719 20.824219 70.261719 19.851562 C 70.261719 19.601562 70.261719 19.347656 70.261719 19.097656 C 70.261719 19.003906 70.261719 19.003906 70.261719 18.910156 C 70.261719 17.894531 70.257812 16.878906 70.257812 15.863281 C 70.253906 14.820312 70.253906 13.777344 70.253906 12.734375 C 70.25 12.152344 70.25 11.566406 70.25 10.980469 C 70.246094 10.484375 70.246094 9.984375 70.246094 9.488281 C 70.25 9.234375 70.25 8.980469 70.246094 8.726562 C 70.246094 8.449219 70.246094 8.175781 70.246094 7.898438 C 70.246094 7.820312 70.246094 7.738281 70.246094 7.65625 C 70.25 7.121094 70.25 7.121094 70.414062 6.871094 C 70.664062 6.722656 70.910156 6.734375 71.191406 6.738281 Z M 71.191406 6.738281 "/>
<path style=" stroke:none;fill-rule:nonzero;fill:rgb(4.313726%,93.333334%,33.725491%);fill-opacity:1;" d="M 19.019531 10.015625 C 19.117188 10.015625 19.214844 10.015625 19.316406 10.015625 C 19.316406 10.082031 19.316406 10.082031 19.316406 10.148438 C 19.3125 11.207031 19.308594 12.269531 19.308594 13.332031 C 19.304688 13.847656 19.304688 14.359375 19.304688 14.875 C 19.300781 15.371094 19.300781 15.863281 19.300781 16.359375 C 19.300781 16.550781 19.300781 16.738281 19.300781 16.929688 C 19.296875 17.191406 19.296875 17.457031 19.296875 17.722656 C 19.296875 17.839844 19.296875 17.839844 19.296875 17.960938 C 19.296875 18.496094 19.296875 18.496094 19.460938 19 C 19.714844 19.082031 19.917969 19.082031 20.1875 19.085938 C 20.261719 19.089844 20.261719 19.089844 20.339844 19.089844 C 20.507812 19.09375 20.675781 19.09375 20.84375 19.09375 C 20.960938 19.097656 21.078125 19.097656 21.195312 19.101562 C 21.5 19.105469 21.808594 19.109375 22.113281 19.113281 C 22.425781 19.113281 22.742188 19.121094 23.054688 19.125 C 23.667969 19.132812 24.28125 19.136719 24.894531 19.144531 C 24.835938 19.480469 24.71875 19.75 24.5625 20.046875 C 24.53125 20.101562 24.503906 20.15625 24.476562 20.210938 C 24.117188 20.867188 23.707031 21.492188 23.300781 22.121094 C 22.992188 22.597656 22.691406 23.082031 22.394531 23.570312 C 21.878906 24.410156 21.363281 25.246094 20.839844 26.082031 C 20.714844 26.285156 20.589844 26.484375 20.464844 26.683594 C 19.542969 28.160156 19.542969 28.160156 19.316406 28.425781 C 19.265625 28.425781 19.21875 28.425781 19.167969 28.425781 C 19.160156 27.628906 19.148438 26.835938 19.140625 26.039062 C 19.136719 25.671875 19.128906 25.300781 19.125 24.933594 C 19.121094 24.503906 19.117188 24.078125 19.109375 23.648438 C 19.109375 23.578125 19.109375 23.507812 19.109375 23.4375 C 19.101562 22.722656 19.09375 22.007812 19.09375 21.292969 C 19.09375 21.210938 19.09375 21.210938 19.09375 21.125 C 19.097656 20.867188 19.097656 20.609375 19.097656 20.355469 C 19.097656 20.265625 19.101562 20.179688 19.101562 20.085938 C 19.101562 20.011719 19.101562 19.9375 19.101562 19.859375 C 19.09375 19.679688 19.070312 19.535156 19.019531 19.367188 C 18.695312 19.304688 18.386719 19.285156 18.050781 19.285156 C 18 19.285156 17.949219 19.285156 17.898438 19.285156 C 17.730469 19.285156 17.5625 19.285156 17.398438 19.285156 C 17.28125 19.285156 17.164062 19.285156 17.046875 19.285156 C 16.742188 19.285156 16.4375 19.289062 16.132812 19.289062 C 15.820312 19.289062 15.511719 19.289062 15.199219 19.289062 C 14.585938 19.289062 13.976562 19.292969 13.367188 19.292969 C 13.476562 19.007812 13.605469 18.761719 13.761719 18.5 C 13.835938 18.375 13.835938 18.375 13.914062 18.25 C 13.96875 18.160156 14.023438 18.070312 14.078125 17.980469 C 14.132812 17.886719 14.191406 17.796875 14.246094 17.703125 C 14.644531 17.050781 15.046875 16.402344 15.453125 15.753906 C 15.785156 15.21875 16.117188 14.683594 16.445312 14.148438 C 16.496094 14.070312 16.542969 13.988281 16.59375 13.90625 C 16.820312 13.539062 17.042969 13.171875 17.269531 12.804688 C 17.539062 12.363281 17.808594 11.921875 18.078125 11.484375 C 18.167969 11.34375 18.253906 11.203125 18.339844 11.0625 C 18.449219 10.878906 18.558594 10.699219 18.671875 10.519531 C 18.71875 10.441406 18.71875 10.441406 18.769531 10.363281 C 18.855469 10.222656 18.855469 10.222656 19.019531 10.015625 Z M 19.019531 10.015625 "/>
<path style=" stroke:none;fill-rule:nonzero;fill:rgb(100%,100%,100%);fill-opacity:1;" d="M 14.097656 40.269531 C 14.234375 40.269531 14.234375 40.269531 14.378906 40.269531 C 14.484375 40.269531 14.585938 40.269531 14.691406 40.269531 C 14.796875 40.269531 14.90625 40.265625 15.015625 40.265625 C 15.3125 40.265625 15.609375 40.265625 15.90625 40.265625 C 16.089844 40.265625 16.273438 40.265625 16.460938 40.265625 C 17.039062 40.261719 17.613281 40.261719 18.191406 40.261719 C 18.859375 40.261719 19.527344 40.261719 20.195312 40.257812 C 20.710938 40.257812 21.226562 40.257812 21.746094 40.257812 C 22.050781 40.257812 22.359375 40.253906 22.667969 40.253906 C 22.960938 40.253906 23.25 40.253906 23.539062 40.253906 C 23.644531 40.253906 23.75 40.253906 23.859375 40.253906 C 24.003906 40.25 24.148438 40.253906 24.292969 40.253906 C 24.375 40.253906 24.457031 40.253906 24.539062 40.253906 C 24.773438 40.28125 24.875 40.335938 25.042969 40.5 C 25.082031 40.660156 25.082031 40.660156 25.082031 40.847656 C 25.082031 40.917969 25.082031 40.988281 25.085938 41.058594 C 25.082031 41.132812 25.082031 41.210938 25.082031 41.289062 C 25.082031 41.367188 25.082031 41.441406 25.082031 41.523438 C 25.082031 41.6875 25.082031 41.851562 25.082031 42.015625 C 25.078125 42.265625 25.082031 42.519531 25.082031 42.769531 C 25.082031 42.929688 25.082031 43.089844 25.082031 43.25 C 25.082031 43.324219 25.082031 43.398438 25.085938 43.476562 C 25.082031 43.582031 25.082031 43.582031 25.082031 43.6875 C 25.082031 43.75 25.082031 43.8125 25.082031 43.875 C 25.042969 44.035156 25.042969 44.035156 24.921875 44.152344 C 24.699219 44.285156 24.550781 44.285156 24.292969 44.285156 C 24.15625 44.285156 24.15625 44.285156 24.011719 44.285156 C 23.910156 44.285156 23.804688 44.285156 23.703125 44.285156 C 23.59375 44.285156 23.484375 44.285156 23.375 44.285156 C 23.078125 44.285156 22.785156 44.285156 22.488281 44.285156 C 22.179688 44.28125 21.867188 44.28125 21.558594 44.28125 C 21.039062 44.28125 20.519531 44.28125 20 44.28125 C 19.402344 44.28125 18.800781 44.277344 18.199219 44.28125 C 17.621094 44.28125 17.042969 44.28125 16.464844 44.277344 C 16.21875 44.277344 15.972656 44.277344 15.726562 44.277344 C 15.4375 44.277344 15.148438 44.277344 14.859375 44.277344 C 14.753906 44.277344 14.648438 44.277344 14.539062 44.277344 C 14.394531 44.277344 14.25 44.277344 14.105469 44.277344 C 14.023438 44.273438 13.941406 44.273438 13.859375 44.273438 C 13.660156 44.257812 13.660156 44.257812 13.441406 44.109375 C 13.402344 43.972656 13.402344 43.972656 13.390625 43.808594 C 13.386719 43.75 13.378906 43.691406 13.375 43.628906 C 13.359375 43.351562 13.355469 43.074219 13.355469 42.796875 C 13.355469 42.738281 13.351562 42.679688 13.351562 42.621094 C 13.351562 42.496094 13.351562 42.375 13.351562 42.253906 C 13.351562 42.066406 13.351562 41.878906 13.351562 41.691406 C 13.347656 41.570312 13.347656 41.449219 13.347656 41.332031 C 13.347656 41.273438 13.347656 41.21875 13.347656 41.160156 C 13.347656 40.859375 13.367188 40.621094 13.511719 40.351562 C 13.714844 40.253906 13.871094 40.269531 14.097656 40.269531 Z M 14.097656 40.269531 "/>
<path style=" stroke:none;fill-rule:nonzero;fill:rgb(100%,100%,100%);fill-opacity:1;" d="M 14.03125 46.078125 C 14.125 46.078125 14.21875 46.078125 14.316406 46.078125 C 14.421875 46.078125 14.527344 46.078125 14.632812 46.078125 C 14.742188 46.078125 14.851562 46.078125 14.964844 46.078125 C 15.265625 46.078125 15.566406 46.078125 15.867188 46.078125 C 16.179688 46.078125 16.492188 46.078125 16.808594 46.078125 C 17.335938 46.078125 17.863281 46.078125 18.390625 46.078125 C 19 46.078125 19.609375 46.078125 20.222656 46.078125 C 20.746094 46.078125 21.269531 46.078125 21.792969 46.078125 C 22.105469 46.078125 22.417969 46.078125 22.730469 46.078125 C 23.023438 46.078125 23.320312 46.078125 23.613281 46.078125 C 23.722656 46.078125 23.828125 46.078125 23.9375 46.078125 C 24.085938 46.078125 24.234375 46.078125 24.378906 46.078125 C 24.460938 46.078125 24.542969 46.078125 24.628906 46.078125 C 24.824219 46.097656 24.824219 46.097656 24.96875 46.246094 C 25 46.652344 24.9375 47.042969 24.867188 47.445312 C 24.855469 47.507812 24.847656 47.570312 24.835938 47.636719 C 24.8125 47.773438 24.789062 47.90625 24.765625 48.042969 C 24.730469 48.246094 24.699219 48.453125 24.664062 48.65625 C 24.640625 48.789062 24.621094 48.917969 24.597656 49.050781 C 24.585938 49.113281 24.578125 49.171875 24.566406 49.234375 C 24.558594 49.292969 24.546875 49.351562 24.535156 49.410156 C 24.527344 49.460938 24.519531 49.511719 24.511719 49.5625 C 24.433594 49.765625 24.328125 49.863281 24.160156 50 C 23.972656 50.035156 23.972656 50.035156 23.753906 50.039062 C 23.667969 50.039062 23.585938 50.039062 23.5 50.039062 C 23.410156 50.039062 23.316406 50.039062 23.222656 50.039062 C 23.078125 50.039062 23.078125 50.039062 22.929688 50.039062 C 22.667969 50.042969 22.402344 50.039062 22.140625 50.039062 C 21.863281 50.039062 21.585938 50.039062 21.3125 50.039062 C 20.847656 50.039062 20.382812 50.039062 19.921875 50.039062 C 19.382812 50.035156 18.847656 50.039062 18.3125 50.039062 C 17.851562 50.039062 17.390625 50.039062 16.929688 50.039062 C 16.65625 50.039062 16.378906 50.039062 16.105469 50.039062 C 15.800781 50.042969 15.492188 50.039062 15.1875 50.039062 C 15.050781 50.039062 15.050781 50.039062 14.910156 50.039062 C 14.828125 50.039062 14.742188 50.039062 14.65625 50.039062 C 14.585938 50.039062 14.511719 50.039062 14.4375 50.035156 C 14.191406 49.988281 14.105469 49.902344 13.953125 49.707031 C 13.898438 49.507812 13.859375 49.324219 13.832031 49.125 C 13.820312 49.066406 13.8125 49.011719 13.804688 48.953125 C 13.773438 48.773438 13.746094 48.597656 13.71875 48.417969 C 13.691406 48.238281 13.664062 48.058594 13.632812 47.878906 C 13.617188 47.769531 13.597656 47.65625 13.582031 47.546875 C 13.542969 47.304688 13.5 47.070312 13.441406 46.832031 C 13.421875 46.632812 13.429688 46.445312 13.441406 46.246094 C 13.640625 46.042969 13.75 46.078125 14.03125 46.078125 Z M 14.03125 46.078125 "/>
<path style=" stroke:none;fill-rule:nonzero;fill:rgb(100%,100%,100%);fill-opacity:1;" d="M 51.261719 42.929688 C 53.023438 42.929688 53.023438 42.929688 53.386719 43.253906 C 53.492188 43.464844 53.492188 43.464844 53.585938 43.699219 C 53.664062 43.863281 53.742188 44.023438 53.820312 44.1875 C 53.855469 44.269531 53.894531 44.355469 53.933594 44.441406 C 54.128906 44.863281 54.363281 45.261719 54.59375 45.664062 C 54.675781 45.808594 54.753906 45.953125 54.835938 46.097656 C 55.109375 46.589844 55.390625 47.078125 55.667969 47.570312 C 55.667969 46.039062 55.667969 44.507812 55.667969 42.929688 C 56.105469 42.929688 56.539062 42.929688 56.988281 42.929688 C 56.988281 45.09375 56.988281 47.257812 56.988281 49.484375 C 56.382812 49.484375 55.777344 49.484375 55.152344 49.484375 C 54.6875 48.914062 54.6875 48.914062 54.582031 48.628906 C 54.402344 48.171875 54.160156 47.757812 53.914062 47.332031 C 53.835938 47.1875 53.753906 47.042969 53.675781 46.902344 C 53.292969 46.214844 52.898438 45.53125 52.511719 44.84375 C 52.511719 46.375 52.511719 47.90625 52.511719 49.484375 C 52.097656 49.484375 51.6875 49.484375 51.261719 49.484375 C 51.261719 47.320312 51.261719 45.160156 51.261719 42.929688 Z M 51.261719 42.929688 "/>
<path style=" stroke:none;fill-rule:nonzero;fill:rgb(100%,100%,100%);fill-opacity:1;" d="M 118.441406 43.394531 C 119 43.820312 119.308594 44.519531 119.460938 45.195312 C 119.605469 46.441406 119.546875 47.730469 118.753906 48.757812 C 118.347656 49.203125 117.714844 49.527344 117.109375 49.570312 C 115.039062 49.621094 115.039062 49.621094 114.199219 48.820312 C 113.382812 47.957031 113.359375 46.867188 113.371094 45.746094 C 113.398438 44.882812 113.65625 44.148438 114.269531 43.523438 C 115.398438 42.539062 117.230469 42.617188 118.441406 43.394531 Z M 115.28125 44.554688 C 114.773438 45.136719 114.824219 45.957031 114.851562 46.683594 C 114.886719 47.210938 115.074219 47.707031 115.449219 48.085938 C 115.863281 48.339844 116.210938 48.414062 116.695312 48.378906 C 117.1875 48.261719 117.464844 48.03125 117.777344 47.628906 C 118.109375 46.910156 118.125 45.976562 117.929688 45.21875 C 117.773438 44.792969 117.527344 44.417969 117.136719 44.183594 C 116.410156 43.933594 115.835938 44.03125 115.28125 44.554688 Z M 115.28125 44.554688 "/>
<path style=" stroke:none;fill-rule:nonzero;fill:rgb(100%,100%,100%);fill-opacity:1;" d="M 139.976562 42.929688 C 143.394531 42.929688 143.394531 42.929688 144.089844 43.59375 C 144.515625 44.144531 144.507812 44.765625 144.457031 45.433594 C 144.332031 45.957031 143.921875 46.304688 143.503906 46.613281 C 143.453125 46.613281 143.40625 46.613281 143.355469 46.613281 C 143.828125 47.386719 144.324219 48.140625 144.835938 48.886719 C 144.882812 48.953125 144.929688 49.023438 144.976562 49.089844 C 145.039062 49.179688 145.039062 49.179688 145.101562 49.273438 C 145.191406 49.410156 145.191406 49.410156 145.191406 49.484375 C 144.933594 49.503906 144.671875 49.515625 144.410156 49.527344 C 144.339844 49.53125 144.265625 49.535156 144.191406 49.542969 C 143.660156 49.558594 143.660156 49.558594 143.445312 49.363281 C 143.324219 49.191406 143.230469 49.011719 143.136719 48.820312 C 143.054688 48.675781 142.972656 48.53125 142.890625 48.390625 C 142.761719 48.160156 142.632812 47.933594 142.507812 47.703125 C 142.46875 47.632812 142.425781 47.558594 142.382812 47.484375 C 142.34375 47.417969 142.308594 47.351562 142.269531 47.28125 C 142.0625 47.054688 142.0625 47.054688 141.445312 47.054688 C 141.445312 47.855469 141.445312 48.660156 141.445312 49.484375 C 140.960938 49.484375 140.476562 49.484375 139.976562 49.484375 C 139.976562 47.320312 139.976562 45.160156 139.976562 42.929688 Z M 141.445312 44.183594 C 141.445312 44.71875 141.445312 45.25 141.445312 45.800781 C 141.671875 45.808594 141.671875 45.808594 141.902344 45.816406 C 142.027344 45.820312 142.027344 45.820312 142.15625 45.824219 C 142.421875 45.800781 142.554688 45.738281 142.769531 45.582031 C 142.8125 45.550781 142.851562 45.519531 142.898438 45.488281 C 143.046875 45.28125 143.054688 45.097656 143.0625 44.84375 C 142.972656 44.574219 142.890625 44.441406 142.667969 44.265625 C 142.257812 44.136719 141.875 44.167969 141.445312 44.183594 Z M 141.445312 44.183594 "/>
<path style=" stroke:none;fill-rule:nonzero;fill:rgb(100%,100%,100%);fill-opacity:1;" d="M 82.472656 43.226562 C 82.34375 43.628906 82.207031 44.015625 82.03125 44.402344 C 81.925781 44.378906 81.820312 44.359375 81.714844 44.335938 C 81.65625 44.320312 81.597656 44.308594 81.539062 44.296875 C 81.371094 44.257812 81.371094 44.257812 81.152344 44.183594 C 80.214844 44.105469 80.214844 44.105469 79.390625 44.476562 C 78.859375 44.960938 78.691406 45.519531 78.652344 46.222656 C 78.660156 46.847656 78.765625 47.496094 79.191406 47.976562 C 79.71875 48.4375 80.425781 48.324219 81.078125 48.304688 C 81.078125 47.867188 81.078125 47.429688 81.078125 46.980469 C 80.667969 46.980469 80.253906 46.980469 79.828125 46.980469 C 79.828125 46.59375 79.828125 46.203125 79.828125 45.800781 C 80.703125 45.800781 81.574219 45.800781 82.472656 45.800781 C 82.472656 46.945312 82.472656 48.085938 82.472656 49.261719 C 81.019531 49.605469 81.019531 49.605469 80.242188 49.59375 C 80.164062 49.597656 80.085938 49.597656 80.003906 49.597656 C 79.289062 49.59375 78.621094 49.421875 78.054688 48.960938 C 77.265625 48.152344 77.105469 47.109375 77.113281 46.023438 C 77.148438 45.152344 77.417969 44.328125 78.007812 43.667969 C 79.273438 42.542969 80.996094 42.730469 82.472656 43.226562 Z M 82.472656 43.226562 "/>
<path style=" stroke:none;fill-rule:nonzero;fill:rgb(100%,100%,100%);fill-opacity:1;" d="M 68.886719 42.929688 C 72.226562 42.929688 72.226562 42.929688 72.964844 43.625 C 73.332031 44.054688 73.382812 44.648438 73.359375 45.199219 C 73.28125 45.707031 73.050781 46.089844 72.65625 46.421875 C 72.382812 46.613281 72.382812 46.613281 72.191406 46.613281 C 72.214844 46.648438 72.238281 46.683594 72.261719 46.71875 C 72.5 47.082031 72.738281 47.441406 72.976562 47.804688 C 73.066406 47.9375 73.15625 48.074219 73.242188 48.210938 C 73.371094 48.402344 73.5 48.597656 73.625 48.792969 C 73.667969 48.851562 73.707031 48.914062 73.75 48.976562 C 73.785156 49.03125 73.820312 49.089844 73.859375 49.144531 C 73.890625 49.195312 73.925781 49.246094 73.957031 49.296875 C 74.027344 49.410156 74.027344 49.410156 74.027344 49.484375 C 73.496094 49.597656 72.933594 49.6875 72.414062 49.484375 C 71.855469 48.972656 71.539062 48.207031 71.222656 47.53125 C 71.132812 47.347656 71.132812 47.347656 70.945312 47.128906 C 70.726562 47.105469 70.507812 47.078125 70.28125 47.054688 C 70.28125 47.855469 70.28125 48.660156 70.28125 49.484375 C 69.820312 49.484375 69.363281 49.484375 68.886719 49.484375 C 68.886719 47.320312 68.886719 45.160156 68.886719 42.929688 Z M 70.28125 44.183594 C 70.28125 44.71875 70.28125 45.25 70.28125 45.800781 C 71.019531 45.859375 71.019531 45.859375 71.679688 45.582031 C 71.835938 45.40625 71.894531 45.289062 71.90625 45.054688 C 71.890625 44.746094 71.867188 44.59375 71.652344 44.367188 C 71.207031 44.113281 70.78125 44.175781 70.28125 44.183594 Z M 70.28125 44.183594 "/>
<path style=" stroke:none;fill-rule:nonzero;fill:rgb(100%,100%,100%);fill-opacity:1;" d="M 93.636719 42.929688 C 94.21875 42.929688 94.800781 42.929688 95.398438 42.929688 C 95.640625 43.621094 95.886719 44.3125 96.128906 45 C 96.238281 45.316406 96.347656 45.628906 96.460938 45.941406 C 96.617188 46.394531 96.777344 46.847656 96.9375 47.300781 C 97 47.484375 97.066406 47.667969 97.128906 47.847656 C 97.21875 48.105469 97.3125 48.363281 97.402344 48.621094 C 97.429688 48.699219 97.457031 48.777344 97.484375 48.859375 C 97.511719 48.933594 97.535156 49.003906 97.5625 49.078125 C 97.585938 49.140625 97.605469 49.203125 97.628906 49.269531 C 97.675781 49.410156 97.675781 49.410156 97.675781 49.484375 C 97.144531 49.484375 96.609375 49.484375 96.058594 49.484375 C 95.84375 48.753906 95.84375 48.753906 95.621094 48.011719 C 94.894531 48.011719 94.164062 48.011719 93.417969 48.011719 C 93.269531 48.496094 93.125 48.984375 92.976562 49.484375 C 92.46875 49.484375 91.957031 49.484375 91.433594 49.484375 C 91.523438 49.085938 91.601562 48.734375 91.730469 48.355469 C 91.773438 48.226562 91.773438 48.226562 91.820312 48.097656 C 91.867188 47.960938 91.867188 47.960938 91.914062 47.824219 C 91.949219 47.726562 91.980469 47.628906 92.011719 47.535156 C 92.082031 47.332031 92.152344 47.132812 92.222656 46.929688 C 92.308594 46.675781 92.398438 46.421875 92.484375 46.167969 C 92.855469 45.085938 93.238281 44.003906 93.636719 42.929688 Z M 94.519531 44.257812 C 94.332031 44.734375 94.175781 45.222656 94.027344 45.714844 C 93.992188 45.828125 93.992188 45.828125 93.957031 45.945312 C 93.933594 46.019531 93.910156 46.09375 93.886719 46.167969 C 93.867188 46.234375 93.847656 46.300781 93.828125 46.367188 C 93.773438 46.546875 93.773438 46.546875 93.785156 46.761719 C 94.292969 46.761719 94.800781 46.761719 95.324219 46.761719 C 95.082031 45.933594 94.839844 45.109375 94.589844 44.257812 C 94.566406 44.257812 94.542969 44.257812 94.519531 44.257812 Z M 94.519531 44.257812 "/>
<path style=" stroke:none;fill-rule:nonzero;fill:rgb(100%,100%,100%);fill-opacity:1;" d="M 132.558594 42.929688 C 133.140625 42.929688 133.722656 42.929688 134.324219 42.929688 C 134.652344 43.757812 134.652344 43.757812 134.761719 44.074219 C 134.785156 44.144531 134.808594 44.214844 134.835938 44.289062 C 134.859375 44.363281 134.886719 44.4375 134.910156 44.511719 C 134.953125 44.632812 134.953125 44.632812 134.996094 44.753906 C 135.082031 45.007812 135.167969 45.257812 135.253906 45.511719 C 135.367188 45.84375 135.480469 46.175781 135.59375 46.503906 C 135.625 46.585938 135.652344 46.667969 135.679688 46.75 C 135.914062 47.425781 136.152344 48.097656 136.398438 48.769531 C 136.425781 48.84375 136.453125 48.914062 136.480469 48.988281 C 136.503906 49.054688 136.527344 49.117188 136.550781 49.183594 C 136.597656 49.335938 136.597656 49.335938 136.597656 49.484375 C 136.089844 49.484375 135.582031 49.484375 135.058594 49.484375 C 134.804688 48.808594 134.804688 48.808594 134.714844 48.503906 C 134.695312 48.445312 134.675781 48.382812 134.65625 48.320312 C 134.617188 48.160156 134.617188 48.160156 134.617188 47.9375 C 133.867188 47.9375 133.113281 47.9375 132.339844 47.9375 C 132.265625 48.230469 132.195312 48.519531 132.121094 48.820312 C 132.046875 49.039062 131.972656 49.257812 131.898438 49.484375 C 131.390625 49.484375 130.882812 49.484375 130.355469 49.484375 C 130.519531 48.863281 130.710938 48.261719 130.921875 47.65625 C 130.953125 47.558594 130.988281 47.464844 131.019531 47.367188 C 131.105469 47.113281 131.195312 46.863281 131.28125 46.609375 C 131.351562 46.40625 131.421875 46.203125 131.492188 46 C 131.84375 44.976562 132.199219 43.953125 132.558594 42.929688 Z M 133.441406 44.183594 C 133.335938 44.527344 133.230469 44.871094 133.128906 45.210938 C 133.09375 45.328125 133.058594 45.445312 133.019531 45.5625 C 132.96875 45.730469 132.917969 45.898438 132.867188 46.066406 C 132.851562 46.117188 132.835938 46.171875 132.820312 46.226562 C 132.734375 46.488281 132.734375 46.488281 132.707031 46.761719 C 133.214844 46.761719 133.726562 46.761719 134.25 46.761719 C 134.046875 45.886719 133.777344 45.039062 133.515625 44.183594 C 133.492188 44.183594 133.464844 44.183594 133.441406 44.183594 Z M 133.441406 44.183594 "/>
<path style=" stroke:none;fill-rule:nonzero;fill:rgb(100%,100%,100%);fill-opacity:1;" d="M 61.175781 42.929688 C 62.410156 42.929688 63.648438 42.929688 64.921875 42.929688 C 64.921875 43.34375 64.921875 43.757812 64.921875 44.183594 C 64.144531 44.183594 63.371094 44.183594 62.570312 44.183594 C 62.570312 44.621094 62.570312 45.058594 62.570312 45.507812 C 63.296875 45.507812 64.027344 45.507812 64.773438 45.507812 C 64.773438 45.898438 64.773438 46.285156 64.773438 46.6875 C 64.046875 46.6875 63.320312 46.6875 62.570312 46.6875 C 62.570312 47.222656 62.570312 47.753906 62.570312 48.304688 C 63.347656 48.304688 64.121094 48.304688 64.921875 48.304688 C 64.921875 48.695312 64.921875 49.082031 64.921875 49.484375 C 63.683594 49.484375 62.449219 49.484375 61.175781 49.484375 C 61.175781 47.320312 61.175781 45.160156 61.175781 42.929688 Z M 61.175781 42.929688 "/>
<path style=" stroke:none;fill-rule:nonzero;fill:rgb(100%,100%,100%);fill-opacity:1;" d="M 43.550781 42.929688 C 44.785156 42.929688 46.023438 42.929688 47.296875 42.929688 C 47.296875 43.34375 47.296875 43.757812 47.296875 44.183594 C 46.519531 44.183594 45.746094 44.183594 44.945312 44.183594 C 44.945312 44.621094 44.945312 45.058594 44.945312 45.507812 C 45.671875 45.507812 46.398438 45.507812 47.148438 45.507812 C 47.148438 45.898438 47.148438 46.285156 47.148438 46.6875 C 46.421875 46.6875 45.695312 46.6875 44.945312 46.6875 C 44.945312 47.222656 44.945312 47.753906 44.945312 48.304688 C 45.722656 48.304688 46.496094 48.304688 47.296875 48.304688 C 47.296875 48.695312 47.296875 49.082031 47.296875 49.484375 C 46.058594 49.484375 44.824219 49.484375 43.550781 49.484375 C 43.550781 47.320312 43.550781 45.160156 43.550781 42.929688 Z M 43.550781 42.929688 "/>
<path style=" stroke:none;fill-rule:nonzero;fill:rgb(100%,100%,100%);fill-opacity:1;" d="M 109.867188 43.300781 C 109.738281 43.703125 109.597656 44.089844 109.425781 44.476562 C 109.375 44.460938 109.328125 44.445312 109.277344 44.429688 C 109.210938 44.410156 109.144531 44.390625 109.078125 44.371094 C 109.011719 44.351562 108.949219 44.332031 108.882812 44.3125 C 108.820312 44.292969 108.757812 44.273438 108.691406 44.257812 C 108.621094 44.234375 108.621094 44.234375 108.546875 44.214844 C 108.351562 44.171875 108.160156 44.164062 107.957031 44.160156 C 107.84375 44.15625 107.84375 44.15625 107.726562 44.152344 C 107.464844 44.191406 107.382812 44.269531 107.222656 44.476562 C 107.167969 44.695312 107.167969 44.695312 107.222656 44.917969 C 107.515625 45.273438 107.863281 45.441406 108.269531 45.640625 C 108.882812 45.953125 109.410156 46.253906 109.796875 46.84375 C 109.945312 47.453125 109.972656 48.117188 109.671875 48.683594 C 109.335938 49.160156 108.875 49.394531 108.324219 49.558594 C 108.046875 49.597656 107.773438 49.601562 107.496094 49.59375 C 107.382812 49.59375 107.382812 49.59375 107.269531 49.59375 C 106.6875 49.578125 106.226562 49.480469 105.679688 49.261719 C 105.679688 48.800781 105.679688 48.339844 105.679688 47.863281 C 105.789062 47.894531 105.894531 47.929688 106.003906 47.960938 C 106.070312 47.980469 106.136719 48 106.207031 48.023438 C 106.339844 48.0625 106.46875 48.105469 106.597656 48.148438 C 107.121094 48.324219 107.667969 48.433594 108.1875 48.207031 C 108.363281 48.050781 108.394531 47.96875 108.433594 47.734375 C 108.386719 47.425781 108.277344 47.359375 108.042969 47.167969 C 107.71875 46.9375 107.359375 46.773438 107.003906 46.605469 C 106.507812 46.355469 105.984375 46.003906 105.785156 45.453125 C 105.679688 44.894531 105.636719 44.21875 105.945312 43.71875 C 106.890625 42.550781 108.625 42.613281 109.867188 43.300781 Z M 109.867188 43.300781 "/>
<path style=" stroke:none;fill-rule:nonzero;fill:rgb(100%,100%,100%);fill-opacity:1;" d="M 123.453125 42.929688 C 123.914062 42.929688 124.375 42.929688 124.847656 42.929688 C 124.847656 44.703125 124.847656 46.480469 124.847656 48.304688 C 125.699219 48.304688 126.546875 48.304688 127.417969 48.304688 C 127.417969 48.695312 127.417969 49.082031 127.417969 49.484375 C 126.109375 49.484375 124.800781 49.484375 123.453125 49.484375 C 123.453125 47.320312 123.453125 45.160156 123.453125 42.929688 Z M 123.453125 42.929688 "/>
<path style=" stroke:none;fill-rule:nonzero;fill:rgb(100%,100%,100%);fill-opacity:1;" d="M 86.585938 42.929688 C 87.046875 42.929688 87.507812 42.929688 87.980469 42.929688 C 87.980469 45.09375 87.980469 47.257812 87.980469 49.484375 C 87.519531 49.484375 87.0625 49.484375 86.585938 49.484375 C 86.585938 47.320312 86.585938 45.160156 86.585938 42.929688 Z M 86.585938 42.929688 "/>
</g>
</svg>
